<?xml version="1.0" standalone="no"?><!DOCTYPE svg PUBLIC "-//W3C//DTD SVG 1.1//EN" "http://www.w3.org/Graphics/SVG/1.1/DTD/svg11.dtd"><svg t="1699285508073" class="icon" viewBox="0 0 1024 1024" version="1.1" xmlns="http://www.w3.org/2000/svg" p-id="3288" data-spm-anchor-id="a313x.search_index.0.i3.3bde3a81jTfF3O" xmlns:xlink="http://www.w3.org/1999/xlink" width="200" height="200"><path d="M563.2 1004.8l147.2-345.6c0-12.8 38.4-249.6 32-256l-96-352c-12.8-6.4-25.6-6.4-44.8 0L396.8 76.8s-6.4 0-6.4 6.4l-128 307.2C256 403.2 288 588.8 288 601.6l179.2 403.2" fill="#d81e06" p-id="3289" data-spm-anchor-id="a313x.search_index.0.i1.3bde3a81jTfF3O" class=""></path><path d="M32 556.8v352l192 96h192L288 723.2h-38.4l-6.4 153.6h-76.8v-320z m960 0v352l-192 96H608l128-281.6h38.4l6.4 153.6h76.8v-320z" fill="#707070" p-id="3290" data-spm-anchor-id="a313x.search_index.0.i2.3bde3a81jTfF3O" class=""></path></svg>